<?xml version="1.0" encoding="UTF-8"?>
<!-- Generator: visioncortex VTracer 0.6.3 -->
<svg version="1.1" xmlns="http://www.w3.org/2000/svg" width="281" height="269">
<path d="M0 0 C2.92 2.42 5.26 4.92 7.64 7.85 C8.99 9.56 8.99 9.56 10.94 11.44 C13.02 10.96 15.1 10.48 17.18 9.96 C25.54 8.38 33.79 9.23 41.94 11.44 C42.05 10.85 42.16 10.27 42.27 9.66 C43.43 5.8 46.03 3.15 48.94 0.44 C53.64 -2.02 57.91 -1.92 62.94 -0.56 C67.67 1.71 70.14 4.39 72.25 9.09 C74.13 15.51 73.58 22.32 70.94 28.44 C71.36 28.85 71.79 29.26 72.22 29.69 C75.34 32.76 78.35 35.86 81.19 39.19 C92.41 52.51 92.41 52.51 107.94 59.44 C109.85 59.42 111.76 59.34 113.67 59.21 C139.59 57.73 158.85 60.84 178.94 78.44 C191.56 90.01 200.41 106.47 202.94 123.44 C203.05 124.1 203.16 124.77 203.27 125.45 C206.91 151.7 198.24 174.39 188.14 198.13 C185.46 204.54 183.67 209.59 183.75 216.62 C183.76 217.94 183.78 219.25 183.79 220.6 C183.92 223.94 184.22 227.18 184.62 230.5 C185.09 235.02 184.7 237.66 181.94 241.44 C174.84 248.98 161.87 251.03 151.95 251.61 C148.9 251.67 145.86 251.66 142.81 251.62 C141.79 251.62 140.77 251.62 139.72 251.62 C123.03 251.53 123.03 251.53 120.94 249.44 C121.24 244.17 122.19 241.19 125.94 237.44 C128.93 235.67 131.72 234.97 135.12 234.38 C138.33 234.02 138.33 234.02 140.94 232.44 C141.87 226.31 139 222.79 135.75 217.94 C129.76 208.6 125.57 199.54 123.94 188.44 C122.93 188.75 121.92 189.06 120.88 189.38 C110.24 192.38 100.62 191.67 89.94 189.44 C89.8 190.12 89.67 190.8 89.53 191.5 C86.19 206.52 79.13 219.53 71.11 232.52 C70.04 234.27 68.99 236.04 67.95 237.81 C64.85 242.97 62.47 246.85 56.94 249.44 C50.33 250.84 43.66 250.62 36.94 250.62 C34.71 250.62 32.48 250.64 30.25 250.66 C22.63 250.69 15.35 250.44 7.94 248.44 C6.7 244.1 7.51 242.22 9.67 238.33 C13.3 232.92 18.26 232.01 24.31 230.69 C26.52 230.26 28.73 229.84 30.94 229.44 C31.89 226.88 32.01 225.67 31.17 223.03 C30.75 222.15 30.34 221.27 29.91 220.36 C29.45 219.37 28.99 218.38 28.52 217.37 C28.02 216.32 27.52 215.27 27 214.19 C26.24 212.56 26.24 212.56 25.47 210.91 C22.66 204.95 19.75 199.05 16.75 193.19 C7.09 174.15 -2.75 151.41 -2.89 129.79 C-3.08 127.14 -3.73 125.72 -5.06 123.44 C-5.47 122.67 -5.87 121.9 -6.29 121.11 C-11.28 112.25 -16.74 107.14 -26.14 103.33 C-28.66 102.16 -29.88 100.96 -31.06 98.44 C-31.06 97.12 -31.06 95.8 -31.06 94.44 C-32.21 94.34 -32.21 94.34 -33.38 94.25 C-36.06 93.44 -36.06 93.44 -37.88 91.5 C-39.59 87.07 -40.13 83.1 -39.06 78.44 C-37.08 75.85 -34.8 74.17 -32.06 72.44 C-30.58 71.45 -30.58 71.45 -29.06 70.44 C-28.97 67.59 -29.03 64.9 -29.19 62.06 C-29.5 50.12 -25.75 41.98 -18.42 32.59 C-16.71 30.3 -16.71 30.3 -17.06 26.44 C-18.37 24.42 -19.7 22.42 -21.06 20.44 C-22.87 15.77 -22.6 10.88 -20.88 6.25 C-18.58 2.68 -16.17 0.28 -12.19 -1.31 C-7.55 -1.86 -4.26 -2.17 0 0 Z M-15.06 4.44 C-17.48 6.77 -18.06 8.44 -19 11.69 C-19.08 16.41 -17.99 19.71 -15.06 23.44 C-12.45 24.57 -12.45 24.57 -10.06 24.44 C-7.87 22.23 -5.8 20.03 -4.06 17.44 C-4.01 14.58 -4.01 14.58 -5.06 12.44 C-7.37 11.78 -9.68 11.12 -12.06 10.44 C-10.88 8.88 -10.88 8.88 -9.06 7.44 C-6.27 7.58 -4.63 8.02 -2.38 9.69 C-0.78 11.81 0.06 13.94 0.94 16.44 C2.59 15.78 4.24 15.12 5.94 14.44 C5.52 9.58 3.48 7.63 -0.06 4.44 C-0.72 3.78 -1.38 3.12 -2.06 2.44 C-7.45 1.09 -10.41 1.37 -15.06 4.44 Z M45.94 7.44 C44.37 10.36 43.09 13.33 41.94 16.44 C40.67 16.11 40.67 16.11 39.38 15.78 C24.62 12.16 11.47 13.17 -2.18 20.51 C-13.17 27.85 -22.14 39.08 -25.75 51.88 C-26.39 57.16 -26.36 62.25 -25.06 67.44 C-23.41 66.45 -21.76 65.46 -20.06 64.44 C-20.39 60.81 -20.72 57.18 -21.06 53.44 C-18.09 54.1 -15.12 54.76 -12.06 55.44 C-12.31 58.31 -12.31 58.31 -13.06 61.44 C-14.89 62.46 -14.89 62.46 -17.06 63.44 C-18.24 64.33 -19.39 65.26 -20.52 66.22 C-21.13 66.75 -21.75 67.28 -22.39 67.83 C-23.02 68.38 -23.66 68.93 -24.31 69.5 C-24.96 70.05 -25.61 70.61 -26.28 71.18 C-27.9 72.58 -29.48 74 -31.06 75.44 C-31.06 75.77 -31.06 76.1 -31.06 76.44 C-29.18 76.81 -29.18 76.81 -27.25 77.19 C-24.51 77.89 -23.19 78.33 -21 80.19 C-19.7 83.3 -20.16 85.24 -21.06 88.44 C-23.2 90.58 -24.2 90.86 -27.06 91.44 C-27.06 92.1 -27.06 92.76 -27.06 93.44 C-21.67 97.18 -16.59 98.26 -10.06 97.44 C-3.97 95.6 1.52 92.73 6.94 89.44 C4.88 94.37 1.96 95.68 -2.71 97.64 C-7.94 99.41 -12.88 99.56 -18.38 99.5 C-19.12 99.5 -19.86 99.49 -20.62 99.49 C-22.43 99.47 -24.25 99.46 -26.06 99.44 C-23.27 102.23 -20.97 101.76 -17.16 101.9 C-16.12 102.17 -16.12 102.17 -15.06 102.44 C-14.01 104.31 -14.01 104.31 -13.06 106.44 C-4.11 113.89 7.46 114.93 18.69 114.19 C38.93 111.85 55.92 103.25 69.19 87.66 C77.69 76.87 80.76 66.12 79.94 52.44 C78.84 44.65 76.19 38.46 69.94 33.44 C67.81 32.7 67.81 32.7 65.94 32.44 C65.94 34.42 65.94 36.4 65.94 38.44 C64.12 38.25 64.12 38.25 61.94 37.44 C60.19 34.88 60.19 34.88 58.94 32.44 C59.49 32.21 60.05 31.98 60.62 31.75 C64.61 29.49 67.26 26.78 69.31 22.69 C70.43 16.88 69.89 12.24 67.12 7 C64.57 4.01 62.66 2.74 58.79 2.07 C53.23 1.9 49.43 2.79 45.94 7.44 Z M80.94 46.44 C81.1 47.2 81.27 47.96 81.44 48.75 C83.46 63.65 79.86 75.75 71.94 88.44 C70.84 89.8 70.84 89.8 69.71 91.19 C67.73 93.22 67.73 93.22 67.94 95.44 C70.25 95.77 72.56 96.1 74.94 96.44 C68.36 106.4 59.23 113.64 49.06 119.69 C38.09 126.23 31.69 134.58 28.5 147.19 C26.56 160.06 29.61 173.1 32.12 185.68 C34.32 196.8 35.13 207.61 35.19 218.94 C35.21 220.01 35.23 221.08 35.25 222.18 C35.26 223.2 35.26 224.23 35.27 225.28 C35.28 226.66 35.28 226.66 35.29 228.07 C34.94 230.44 34.94 230.44 33.6 232.22 C30.35 234.6 26.07 234.32 22.16 234.71 C18.43 235.55 16.65 236.77 13.94 239.44 C12.59 242.56 12.59 242.56 11.94 245.44 C15.22 244.69 15.22 244.69 16.94 241.44 C17.93 241.11 18.92 240.78 19.94 240.44 C18.95 242.09 17.96 243.74 16.94 245.44 C17.93 245.77 18.92 246.1 19.94 246.44 C20.27 245.45 20.6 244.46 20.94 243.44 C22.26 243.44 23.58 243.44 24.94 243.44 C24.61 244.43 24.28 245.42 23.94 246.44 C30.29 247.59 36.5 247.61 42.94 247.44 C44 247.41 45.07 247.38 46.17 247.35 C47.21 247.3 48.24 247.24 49.31 247.19 C50.25 247.14 51.18 247.09 52.15 247.05 C56.89 246.01 59.68 244.16 62.5 240.31 C64.19 237.64 65.76 234.93 67.31 232.19 C67.88 231.2 68.45 230.21 69.03 229.2 C70.69 226.29 72.32 223.37 73.94 220.44 C74.36 219.68 74.78 218.92 75.22 218.13 C84.29 201.54 90.35 183.8 90.13 164.74 C90.13 163.88 90.13 163.03 90.13 162.15 C90.12 159.02 90.09 155.88 90.06 152.75 C90.02 145.72 89.98 138.68 89.94 131.44 C111.39 131.44 132.84 131.44 154.94 131.44 C151.31 133.75 147.68 136.06 143.94 138.44 C134.02 147.06 128.11 158.31 126.94 171.44 C125.73 190.13 131.95 206.03 142.42 221.1 C144.93 224.9 146.32 227.34 145.75 231.97 C145.35 233.69 145.35 233.69 144.94 235.44 C143.85 235.71 143.85 235.71 142.74 235.99 C135 237.89 135 237.89 127.94 241.44 C126.51 243.99 126.51 243.99 125.94 246.44 C129.94 246.44 131.74 244.71 134.94 242.44 C134.28 244.09 133.62 245.74 132.94 247.44 C137.02 247.53 141.1 247.58 145.19 247.62 C146.33 247.65 147.47 247.68 148.64 247.7 C159.4 247.79 170.4 246.62 178.94 239.44 C181.03 236.3 181.19 235.57 181.12 232 C181.12 231.24 181.11 230.48 181.11 229.69 C181 227.47 181 227.47 180.45 225.51 C176.61 210.07 185.2 195.09 191.1 181.33 C201.11 157.69 203.64 131.8 194.19 107.62 C191.49 101.09 188.08 95.17 183.94 89.44 C183.5 88.82 183.07 88.2 182.62 87.56 C171.25 72.89 152.86 64.94 134.94 62.44 C129.61 62.12 124.34 62.48 119.03 62.95 C108.64 63.82 101.51 62.58 92.94 56.44 C90.97 54.72 89.03 52.97 87.12 51.19 C84.41 48.14 84.41 48.14 80.94 46.44 Z M-27.06 81.44 C-26.73 82.76 -26.4 84.08 -26.06 85.44 C-25.4 85.44 -24.74 85.44 -24.06 85.44 C-24.72 84.12 -25.38 82.8 -26.06 81.44 C-26.39 81.44 -26.72 81.44 -27.06 81.44 Z M6.94 154.44 C7.47 159.94 8.5 164.77 10.52 169.93 C10.91 170.96 10.91 170.96 11.32 172.01 C14.33 179.71 17.95 187.1 21.62 194.5 C22.63 196.53 23.62 198.56 24.62 200.6 C25.52 202.42 26.42 204.23 27.32 206.05 C28.96 209.48 30.46 212.93 31.94 216.44 C32.27 216.44 32.6 216.44 32.94 216.44 C32.62 207.47 31.48 198.72 30.06 189.88 C29.9 188.83 29.74 187.78 29.57 186.7 C27.91 176.7 23.9 172.15 16.76 165.34 C13.26 161.93 10.57 158.56 7.94 154.44 C7.61 154.44 7.28 154.44 6.94 154.44 Z " fill="#000000" transform="translate(62.0625,16.5625)"/>
<path d="M0 0 C2.88 2 2.88 2 5 5 C5.75 9.25 6.02 11.44 3.64 15.07 C2.17 16.81 0.65 18.43 -1 20 C-4.78 19.26 -4.78 19.26 -6.75 16.94 C-7.16 16.3 -7.58 15.66 -8 15 C-5.03 15.5 -5.03 15.5 -2 16 C-0.8 13.16 -0.8 13.16 0 10 C-0.66 9.01 -1.32 8.02 -2 7 C-3.65 7.33 -5.3 7.66 -7 8 C-7.66 9.98 -8.32 11.96 -9 14 C-11.47 13.01 -11.47 13.01 -14 12 C-13.34 11.67 -12.68 11.34 -12 11 C-11.71 9.72 -11.42 8.44 -11.12 7.12 C-10.48 4.37 -10.15 3.17 -8.25 1 C-5.18 -0.36 -3.33 -0.54 0 0 Z " fill="#000000" transform="translate(121,25)"/>
<path d="M0 0 C2.36 1.58 2.9 2.76 4 5.38 C4 8 4 8 2 10.88 C-1 13 -1 13 -4.56 13.12 C-8.61 11.8 -9.97 10.72 -12 7 C-12 3.81 -11.45 2.52 -9.38 0.12 C-5.92 -1.51 -3.64 -0.93 0 0 Z M-5 2 C-5 3.32 -5 4.64 -5 6 C-4.01 5.67 -3.02 5.34 -2 5 C-2.33 4.01 -2.66 3.02 -3 2 C-3.66 2 -4.32 2 -5 2 Z " fill="#000000" transform="translate(79,72)"/>
</svg>
