<?xml version="1.0" standalone="no"?>
<!DOCTYPE svg PUBLIC "-//W3C//DTD SVG 20010904//EN"
 "http://www.w3.org/TR/2001/REC-SVG-20010904/DTD/svg10.dtd">
<svg version="1.0" xmlns="http://www.w3.org/2000/svg"
 width="500.000000pt" height="500.000000pt" viewBox="0 0 500.000000 500.000000"
 preserveAspectRatio="xMidYMid meet">

<g transform="translate(0.000000,500.000000) scale(0.100000,-0.100000)"
fill="#000000" stroke="none">
<path d="M163 4766 l-28 -24 0 -726 0 -726 28 -27 27 -28 380 -3 c333 -2 380
-5 380 -18 0 -8 -9 -74 -20 -145 -22 -140 -20 -166 14 -198 53 -50 56 -48 394
163 l312 196 771 2 771 3 29 33 29 33 -2 720 -3 721 -28 24 -28 24 -1499 0
-1499 0 -28 -24z m2897 -751 l0 -585 -717 0 c-684 0 -720 -1 -758 -19 -22 -11
-132 -78 -245 -149 -113 -72 -206 -129 -208 -128 -1 2 4 49 13 104 16 109 12
133 -25 167 -21 19 -38 20 -411 23 l-389 3 0 584 0 585 1370 0 1370 0 0 -585z"/>
<path d="M729 4296 c-2 -2 -3 -133 -1 -290 l3 -286 54 0 55 0 0 120 0 120 100
0 99 0 3 -117 3 -118 53 -3 52 -3 0 291 0 291 -52 -3 -53 -3 -3 -112 -3 -113
-99 0 -100 0 0 115 0 115 -53 0 c-30 0 -56 -2 -58 -4z"/>
<path d="M1220 4240 l0 -60 75 0 75 0 0 -230 0 -230 55 0 55 0 0 230 0 230 80
0 81 0 -3 58 -3 57 -207 3 -208 2 0 -60z"/>
<path d="M1700 4010 l0 -290 55 0 55 0 2 173 3 172 52 -120 c51 -118 52 -120
84 -120 33 0 34 2 83 113 28 61 52 112 55 112 4 0 6 -73 6 -162 l0 -163 58 -3
57 -3 -2 288 -3 288 -57 3 -57 3 -24 -48 c-13 -26 -43 -94 -67 -150 -24 -57
-46 -103 -49 -103 -3 0 -30 58 -60 128 -76 178 -71 172 -136 172 l-55 0 0
-290z"/>
<path d="M2310 4010 l0 -290 175 0 175 0 0 60 0 60 -120 0 -120 0 0 230 0 230
-55 0 -55 0 0 -290z"/>
<path d="M3479 3981 c-45 -46 -35 -117 20 -146 25 -12 79 -15 331 -15 l300 0
0 -255 0 -254 -34 -16 c-54 -26 -121 -104 -141 -164 -24 -75 -17 -162 21 -231
30 -56 94 -117 131 -126 23 -6 23 -8 23 -165 l0 -159 -1044 -2 -1044 -3 -25
-23 c-14 -13 -28 -35 -31 -48 -9 -33 19 -88 50 -103 18 -8 324 -11 1125 -11
l1101 0 29 29 29 29 0 221 0 221 40 20 c167 85 208 308 82 451 -17 20 -52 47
-77 60 l-45 24 0 318 0 319 -29 29 -29 29 -377 0 -377 0 -29 -29z m817 -872
c47 -44 38 -126 -17 -154 -93 -49 -185 43 -135 134 30 54 106 64 152 20z"/>
<path d="M1015 2440 c-110 -23 -199 -73 -271 -154 -49 -53 -100 -147 -110
-203 -5 -26 -17 -38 -58 -62 -172 -97 -203 -322 -63 -459 23 -23 58 -48 78
-56 29 -12 38 -22 43 -50 19 -99 116 -235 214 -297 92 -58 151 -69 379 -69
l205 0 29 29 c31 32 36 64 17 106 -22 49 -51 55 -247 55 -212 0 -261 12 -332
83 -45 45 -89 129 -71 135 6 2 29 16 50 32 168 121 163 370 -10 482 -26 17
-48 33 -48 35 0 2 9 21 20 43 31 60 78 108 134 138 49 26 58 27 259 32 l209 5
24 28 c39 46 27 114 -25 142 -24 12 -65 15 -208 14 -98 -1 -196 -5 -218 -9z
m-262 -581 c63 -32 77 -111 28 -160 -39 -39 -89 -40 -131 -1 -40 36 -47 77
-20 120 29 47 78 64 123 41z"/>
<path d="M1724 2026 l-34 -34 0 -706 c0 -525 3 -712 12 -731 24 -54 36 -55
438 -55 316 0 370 -2 370 -14 0 -8 -9 -77 -20 -153 -16 -110 -18 -143 -9 -166
13 -31 55 -57 92 -57 13 0 160 85 335 195 l313 195 755 0 c823 0 803 -1 824
56 15 39 13 1416 -2 1449 -26 58 63 55 -1554 55 l-1486 0 -34 -34z m2896 -746
l0 -590 -727 0 -727 0 -86 -52 c-47 -29 -152 -94 -234 -145 -82 -52 -150 -92
-152 -90 -2 1 3 47 12 100 16 111 12 139 -23 167 -25 19 -42 20 -414 20 l-389
0 0 583 c0 321 3 587 7 590 3 4 620 7 1370 7 l1363 0 0 -590z"/>
<path d="M3666 1549 c-49 -12 -101 -50 -121 -89 -8 -16 -15 -55 -15 -86 0 -52
3 -59 38 -94 27 -27 59 -44 120 -64 88 -30 112 -46 112 -76 0 -49 -99 -51
-190 -5 -29 15 -53 25 -55 23 -15 -17 -45 -93 -41 -103 2 -7 31 -23 63 -36 81
-31 222 -33 273 -3 52 30 80 78 80 136 0 93 -39 134 -164 174 -86 27 -116 46
-116 74 0 22 17 36 51 45 22 5 87 -11 149 -39 12 -5 22 6 38 39 12 26 20 50
17 55 -9 14 -106 47 -155 53 -25 3 -63 1 -84 -4z"/>
<path d="M2683 1529 c-156 -77 -193 -294 -77 -446 68 -90 198 -115 302 -58 30
16 63 42 74 58 l21 30 -23 17 c-13 10 -36 25 -50 34 -26 15 -28 14 -39 -8 -45
-83 -168 -68 -211 27 -61 132 27 292 140 258 22 -6 49 -24 62 -40 l23 -28 43
30 c23 17 42 34 42 38 0 18 -58 73 -95 90 -57 26 -157 25 -212 -2z"/>
<path d="M3146 1527 c-60 -34 -79 -67 -84 -142 -4 -64 -4 -65 34 -103 28 -28
60 -46 109 -62 104 -34 125 -47 125 -75 0 -53 -94 -58 -190 -10 -29 15 -53 25
-55 23 -15 -17 -45 -93 -41 -103 11 -29 117 -58 211 -59 103 -1 143 15 183 75
20 29 23 43 20 98 -4 58 -7 66 -40 97 -24 22 -63 41 -119 59 -88 28 -119 47
-119 75 0 48 68 60 151 26 34 -14 64 -24 65 -23 14 17 43 90 39 97 -3 5 -30
18 -61 29 -77 29 -176 28 -228 -2z"/>
</g>
</svg>
