<?xml version="1.0" standalone="no"?>
<!DOCTYPE svg PUBLIC "-//W3C//DTD SVG 20010904//EN"
 "http://www.w3.org/TR/2001/REC-SVG-20010904/DTD/svg10.dtd">
<svg version="1.0" xmlns="http://www.w3.org/2000/svg"
 width="512.000000pt" height="512.000000pt" viewBox="0 0 512.000000 512.000000"
 preserveAspectRatio="xMidYMid meet">

<g transform="translate(0.000000,512.000000) scale(0.100000,-0.100000)"
fill="#000000" stroke="none">
<path d="M2567 4629 c-286 -42 -582 -177 -796 -363 l-65 -56 -362 0 c-361 0
-363 0 -384 -22 -39 -42 -19 -101 41 -118 19 -6 154 -10 301 -10 l267 0 -47
-64 c-26 -35 -51 -71 -57 -80 -9 -15 -66 -16 -662 -10 l-653 7 0 79 0 78 275
0 c269 0 275 0 295 22 41 44 13 111 -52 123 -18 4 -154 5 -303 3 -302 -3 -318
-7 -349 -72 -15 -31 -16 -161 -16 -1456 0 -1295 1 -1425 16 -1456 31 -66 16
-64 617 -64 532 0 544 0 562 20 25 28 23 76 -4 103 -22 22 -22 22 -531 25
l-510 3 0 1221 0 1220 607 -7 c335 -4 609 -9 611 -10 2 -2 -4 -18 -13 -35 -9
-18 -34 -85 -55 -149 l-38 -116 -384 -2 c-270 -2 -390 -6 -405 -15 -13 -6 -27
-27 -33 -47 -13 -46 -13 -585 0 -630 17 -62 7 -60 436 -61 l390 0 29 -92 c16
-51 31 -99 33 -105 3 -10 -87 -13 -427 -13 -430 0 -430 0 -451 -22 -37 -40
-21 -97 34 -118 17 -6 190 -10 476 -10 l449 0 17 -33 c9 -17 34 -58 55 -89 22
-31 39 -62 39 -67 0 -8 -163 -11 -525 -11 l-524 0 -21 -22 c-37 -40 -21 -97
34 -118 18 -6 229 -10 603 -10 l575 0 75 -70 c93 -87 255 -196 376 -254 429
-205 921 -206 1350 -4 l107 51 93 -90 c106 -104 138 -118 210 -89 l42 16 115
-115 115 -116 -1343 3 -1344 3 -19 -24 c-23 -28 -24 -69 -3 -99 15 -21 21 -22
193 -22 98 0 180 -2 183 -5 2 -3 -9 -56 -26 -119 l-30 -113 -101 -6 c-56 -4
-120 -13 -143 -21 -95 -34 -174 -113 -207 -207 -22 -60 -20 -181 3 -202 15
-13 130 -16 1049 -19 980 -3 1032 -2 1051 15 26 24 33 62 22 136 -11 80 -41
140 -96 195 -71 72 -120 90 -253 96 l-114 5 -32 117 c-18 65 -30 120 -27 123
3 3 316 2 696 -1 l691 -7 185 -181 c107 -106 202 -190 225 -201 60 -29 180
-32 237 -7 144 63 212 222 157 367 -20 53 -42 80 -201 241 l-178 181 0 1277
c0 1162 -1 1281 -16 1312 -30 64 -33 64 -447 64 l-375 0 -73 62 c-220 184
-487 306 -774 353 -98 16 -369 18 -468 4z m458 -154 c208 -34 427 -124 598
-245 286 -205 494 -528 563 -877 13 -66 22 -88 42 -103 31 -25 63 -25 93 -1
20 16 24 27 22 68 -3 68 -47 230 -92 340 l-39 93 179 0 179 0 0 -1022 0 -1023
-124 124 -125 124 15 28 c18 36 18 92 0 127 -8 15 -50 62 -94 106 l-80 78 44
92 c23 50 59 139 78 197 34 101 76 307 76 372 0 42 -35 77 -75 77 -51 0 -66
-26 -85 -152 -51 -335 -188 -599 -429 -830 -229 -220 -517 -355 -830 -389
-647 -70 -1271 325 -1490 944 -291 825 241 1726 1104 1871 110 19 359 19 470
1z m1545 -495 l0 -80 -221 2 -221 3 -54 78 -55 77 276 0 275 0 0 -80z m-3345
-887 c0 -109 3 -210 8 -225 l7 -28 -325 0 -325 0 0 225 0 225 318 0 317 0 0
-197z m2918 -991 l57 -57 -190 -190 -190 -190 -60 60 -60 60 93 76 c87 72 188
176 251 262 16 20 31 37 35 37 4 0 32 -26 64 -58z m439 -629 c201 -203 371
-378 377 -390 26 -51 1 -131 -51 -163 -21 -13 -51 -20 -83 -20 l-49 0 -378
377 -378 378 92 92 c51 51 95 93 98 93 3 0 170 -165 372 -367z m-1811 -401
c15 -51 30 -104 33 -117 l6 -25 -450 0 c-425 0 -451 1 -446 18 3 9 17 60 31
112 15 52 29 98 31 102 3 5 177 7 387 6 l382 -3 26 -93z m406 -315 c44 -23
103 -94 103 -124 0 -7 -1830 -5 -1838 2 -2 2 3 16 12 33 19 37 79 90 109 96
12 3 31 7 42 10 11 3 363 3 782 1 646 -3 766 -6 790 -18z"/>
<path d="M2685 4339 c-292 -24 -555 -143 -766 -346 -197 -190 -319 -408 -376
-675 -25 -116 -25 -371 0 -488 64 -299 224 -566 445 -742 49 -39 82 -58 101
-58 37 0 71 38 71 78 0 27 -12 41 -85 103 -184 154 -307 352 -372 596 -23 88
-26 116 -26 268 0 151 3 181 25 266 36 132 78 229 147 336 230 355 621 547
1042 512 518 -44 942 -447 1014 -964 12 -85 7 -276 -10 -363 -43 -226 -165
-446 -335 -606 -290 -273 -694 -370 -1083 -260 -80 22 -90 23 -116 10 -47 -25
-55 -70 -18 -110 16 -19 48 -32 114 -50 445 -117 890 -2 1219 316 194 188 319
421 369 688 21 111 21 328 0 445 -69 390 -324 733 -678 911 -212 107 -444 152
-682 133z"/>
<path d="M2025 3407 c-57 -19 -91 -44 -116 -84 -30 -49 -40 -101 -28 -149 18
-71 63 -105 205 -159 65 -24 114 -58 114 -77 0 -5 -11 -20 -25 -33 -44 -45
-134 -31 -209 32 -49 41 -116 10 -116 -55 0 -76 130 -152 258 -152 83 0 134
22 184 78 48 53 65 111 49 171 -23 86 -70 125 -218 182 -104 40 -113 50 -80
83 34 34 68 33 146 -5 56 -27 66 -29 92 -18 54 22 64 70 24 117 -52 62 -195
97 -280 69z"/>
<path d="M2580 3413 c-51 -20 -50 -15 -50 -338 l0 -302 23 -21 c22 -20 33 -22
163 -22 134 0 142 1 162 23 31 33 29 80 -4 106 -22 17 -41 21 -110 21 l-84 0
0 60 0 60 79 0 c88 0 115 14 127 62 5 22 0 33 -24 58 -29 28 -35 30 -106 30
l-76 0 0 60 0 60 90 0 c77 0 93 3 110 20 25 25 26 71 1 101 -18 23 -26 24
-153 26 -73 1 -140 0 -148 -4z"/>
<path d="M3329 3406 c-102 -27 -181 -95 -228 -196 -22 -46 -26 -69 -26 -140 0
-72 4 -93 27 -140 35 -72 99 -136 168 -169 47 -22 68 -26 150 -26 89 0 99 2
158 34 67 36 114 86 153 161 33 63 35 212 3 281 -44 95 -131 168 -231 194 -68
18 -112 18 -174 1z m143 -146 c155 -44 187 -257 52 -350 -66 -45 -172 -39
-231 13 -71 62 -91 153 -52 234 43 89 135 129 231 103z"/>
<path d="M450 1758 c-41 -44 -13 -111 52 -123 18 -3 180 -5 359 -3 305 3 328
4 348 22 27 25 29 86 3 109 -17 15 -58 17 -380 17 -359 0 -361 0 -382 -22z"/>
</g>
</svg>
