<?xml version="1.0" standalone="no"?>
<!DOCTYPE svg PUBLIC "-//W3C//DTD SVG 20010904//EN"
 "http://www.w3.org/TR/2001/REC-SVG-20010904/DTD/svg10.dtd">
<svg version="1.0" xmlns="http://www.w3.org/2000/svg"
 width="100.000000pt" height="100.000000pt" viewBox="0 0 100.000000 100.000000"
 preserveAspectRatio="xMidYMid meet">

<g transform="translate(0.000000,100.000000) scale(0.100000,-0.100000)"
fill="#000000" stroke="none">
<path d="M394 954 c-83 -30 -157 -114 -180 -204 l-11 -45 -69 -3 c-37 -2 -74
-8 -81 -14 -16 -13 -14 -153 2 -153 6 0 11 30 13 68 l3 67 64 0 c62 0 65 -1
71 -27 11 -52 27 -98 37 -111 11 -14 -17 -41 -44 -42 -18 0 -49 -31 -49 -47 0
-6 -17 -26 -37 -44 l-38 -33 -3 62 c-2 46 -7 62 -17 62 -12 0 -15 -16 -15 -76
0 -61 -4 -81 -20 -101 -25 -33 -25 -73 0 -106 26 -33 26 -73 0 -80 -27 -7 -26
-47 1 -75 l20 -23 460 2 c453 1 460 1 479 22 26 28 26 67 0 74 -19 5 -20 14
-20 277 0 198 -3 275 -12 284 -7 7 -40 12 -80 12 l-67 0 -12 42 c-24 91 -81
162 -161 204 -45 24 -179 29 -234 8z m216 -35 c137 -62 194 -224 128 -360 -32
-65 -33 -69 -14 -69 17 0 62 90 72 143 l6 37 64 0 64 0 0 -270 0 -270 -328 0
c-242 0 -331 -3 -340 -12 -9 -9 -15 -9 -24 0 -7 7 -43 12 -90 12 -77 0 -78 0
-78 25 0 19 5 25 23 25 13 0 32 7 43 15 12 9 43 14 87 15 50 0 68 3 65 13 -3
6 -25 13 -51 15 -26 2 -47 7 -47 12 0 15 36 30 69 30 35 0 41 15 11 25 -18 6
-16 9 15 37 19 16 35 38 35 48 0 30 15 32 82 9 99 -33 229 -13 277 44 22 28
-6 27 -55 -1 -65 -36 -176 -38 -240 -5 -49 26 -110 92 -132 142 -35 82 -12
202 52 278 66 78 207 107 306 62z m-308 -491 c-18 -18 -67 29 -50 49 9 12 16
10 37 -11 20 -20 23 -28 13 -38z m-30 -60 c-18 -18 -97 60 -80 79 9 12 19 7
52 -26 32 -32 38 -43 28 -53z m-69 4 l27 -28 -57 -67 c-44 -53 -62 -67 -84
-67 -33 0 -59 23 -59 53 0 22 113 136 136 137 5 0 22 -13 37 -28z"/>
<path d="M384 881 c-58 -34 -99 -90 -114 -157 -35 -154 100 -300 260 -281 217
26 283 304 101 432 -37 26 -53 30 -119 33 -70 3 -82 0 -128 -27z m214 -22 c52
-26 98 -91 107 -154 27 -173 -176 -298 -320 -197 -131 92 -115 281 30 356 44
23 130 20 183 -5z"/>
<path d="M445 850 c-4 -6 -4 -21 -1 -34 3 -12 2 -35 -3 -51 -7 -27 -11 -30
-49 -30 -48 0 -60 -18 -16 -25 26 -5 30 -11 26 -39 -1 -5 -12 -11 -23 -13 -24
-3 -48 -33 -36 -45 4 -4 17 -1 29 6 29 18 48 -2 25 -27 -21 -23 -22 -62 -2
-62 9 0 15 9 15 22 l0 21 23 -21 c33 -31 108 -31 137 0 l20 22 0 -22 c0 -13 6
-22 15 -22 17 0 21 45 5 55 -15 9 -12 45 4 45 7 0 19 -7 26 -15 9 -11 16 -13
23 -6 14 14 -19 51 -45 51 -12 0 -18 7 -18 24 0 19 6 25 25 28 42 5 28 23 -17
23 -37 0 -42 3 -49 29 -5 16 -6 41 -2 56 6 33 -16 53 -24 21 -6 -25 -63 -31
-63 -7 0 19 -17 29 -25 16z m70 -70 c3 -5 -3 -10 -15 -10 -12 0 -18 5 -15 10
3 6 10 10 15 10 5 0 12 -4 15 -10z m10 -50 c16 -7 11 -9 -20 -9 -29 -1 -36 2
-25 9 17 11 19 11 45 0z m-45 -110 c0 -33 -4 -60 -10 -60 -16 0 -30 37 -30 79
0 34 3 41 20 41 18 0 20 -7 20 -60z m90 35 c0 -33 -26 -95 -39 -95 -7 0 -11
25 -11 60 0 57 1 60 25 60 20 0 25 -5 25 -25z"/>
<path d="M487 263 c-31 -89 -32 -93 -14 -93 7 0 25 35 40 78 31 88 32 92 14
92 -8 0 -25 -33 -40 -77z"/>
<path d="M367 292 l-37 -38 38 -37 c21 -20 41 -37 45 -37 16 0 6 28 -18 50
l-25 24 25 26 c24 26 33 50 17 50 -4 0 -25 -17 -45 -38z"/>
<path d="M580 317 c0 -8 11 -24 25 -37 l25 -24 -25 -26 c-24 -26 -33 -50 -17
-50 4 0 25 18 46 39 l39 40 -35 35 c-37 37 -58 45 -58 23z"/>
<path d="M723 303 c-36 -14 -3 -23 82 -23 88 0 118 9 79 24 -18 7 -143 7 -161
-1z"/>
<path d="M717 234 c-19 -19 1 -24 89 -24 72 0 95 3 92 13 -5 13 -168 23 -181
11z"/>
</g>
</svg>
